<?xml version="1.0" encoding="utf-8"?>
<!-- Generator: Adobe Illustrator 16.0.0, SVG Export Plug-In . SVG Version: 6.00 Build 0)  -->
<!DOCTYPE svg PUBLIC "-//W3C//DTD SVG 1.1 Tiny//EN" "http://www.w3.org/Graphics/SVG/1.1/DTD/svg11-tiny.dtd">
<svg version="1.1" baseProfile="tiny" id="Layer_1" xmlns="http://www.w3.org/2000/svg" xmlns:xlink="http://www.w3.org/1999/xlink"
	 x="0px" y="0px" width="612px" height="792px" viewBox="0 0 612 792" xml:space="preserve">
<g>
	<path fill="#395185" d="M576.5,703.001c18.497,0,33.5-15.1,33.5-33.722V125.722C610,107.097,594.997,92,576.5,92H36.501
		C17.995,92,3,107.097,3,125.722v543.558c0,18.622,14.995,33.722,33.501,33.722H576.5"/>
	<path fill="#FFFFFF" d="M421.817,703.001V466.39h78.903l11.814-92.211h-90.718v-58.875c0-26.698,7.368-44.892,45.403-44.892
		l48.51-0.021v-82.474c-8.394-1.125-37.188-3.635-70.688-3.635c-69.942,0-117.823,42.973-117.823,121.891v68.005h-79.105v92.211
		h79.105v236.611H421.817"/>
</g>
</svg>
