<?xml version="1.0" encoding="utf-8"?>
<!-- Generator: Adobe Illustrator 16.0.0, SVG Export Plug-In . SVG Version: 6.00 Build 0)  -->
<!DOCTYPE svg PUBLIC "-//W3C//DTD SVG 1.1//EN" "http://www.w3.org/Graphics/SVG/1.1/DTD/svg11.dtd">
<svg version="1.1" id="Capa_1" xmlns="http://www.w3.org/2000/svg" xmlns:xlink="http://www.w3.org/1999/xlink" x="0px" y="0px"
	 width="612px" height="792px" viewBox="0 0 612 792" enable-background="new 0 0 612 792" xml:space="preserve">
<g>
	<path fill="#85D5ED" d="M434.747,90H177.253c-24.643,0-44.536,19.982-44.536,44.581v522.883c0,24.576,19.893,44.536,44.536,44.536
		h257.494c24.599,0,44.536-19.96,44.536-44.536V134.581C479.283,109.982,459.346,90,434.747,90z M242.463,117.074h127.119
		c3.211,0,5.82,4.795,5.82,10.727c0,5.932-2.609,10.75-5.82,10.75H242.463c-3.234,0-5.798-4.817-5.798-10.75
		C236.665,121.868,239.229,117.074,242.463,117.074z M306.022,657.999c-15.679,0-28.436-12.757-28.436-28.457
		s12.756-28.412,28.436-28.412c15.633,0,28.39,12.712,28.39,28.412S321.655,657.999,306.022,657.999z M445.92,560.563H166.102
		V165.223H445.92V560.563L445.92,560.563z"/>
</g>
</svg>
