<?xml version="1.0" encoding="utf-8"?>
<!-- Generator: Adobe Illustrator 16.0.0, SVG Export Plug-In . SVG Version: 6.00 Build 0)  -->
<!DOCTYPE svg PUBLIC "-//W3C//DTD SVG 1.1//EN" "http://www.w3.org/Graphics/SVG/1.1/DTD/svg11.dtd">
<svg version="1.1" id="Capa_1" xmlns="http://www.w3.org/2000/svg" xmlns:xlink="http://www.w3.org/1999/xlink" x="0px" y="0px"
	 width="612px" height="792px" viewBox="0 0 612 792" enable-background="new 0 0 612 792" xml:space="preserve">
<g>
	<path fill="#85D5ED" d="M188.986,90h-47.972c-4.591,0-8.297,3.396-8.297,7.576v88.856c0,4.176,3.706,7.568,8.297,7.568h47.972
		c4.583,0,8.297-3.392,8.297-7.568V97.576C197.283,93.396,193.569,90,188.986,90z M153.163,94.601h23.683
		c0.598,0,1.084,0.815,1.084,1.823c0,1.008-0.486,1.827-1.084,1.827h-23.683c-0.603,0-1.081-0.819-1.081-1.827
		C152.083,95.416,152.561,94.601,153.163,94.601z M165.004,186.522c-2.921,0-5.298-2.167-5.298-4.835s2.376-4.828,5.298-4.828
		c2.912,0,5.289,2.16,5.289,4.828S167.917,186.522,165.004,186.522z M191.067,169.965h-52.131v-67.182h52.131V169.965
		L191.067,169.965z"/>
</g>
</svg>
