<?xml version="1.0" encoding="utf-8"?>
<!-- Generator: Adobe Illustrator 16.0.0, SVG Export Plug-In . SVG Version: 6.00 Build 0)  -->
<!DOCTYPE svg PUBLIC "-//W3C//DTD SVG 1.1//EN" "http://www.w3.org/Graphics/SVG/1.1/DTD/svg11.dtd">
<svg version="1.1" id="Layer_1" xmlns="http://www.w3.org/2000/svg" xmlns:xlink="http://www.w3.org/1999/xlink" x="0px" y="0px"
	 width="612px" height="792px" viewBox="0 0 612 792" enable-background="new 0 0 612 792" xml:space="preserve">
<path fill="#03F730" d="M371.708,325.237v97.128c0,2.459-1.912,4.371-4.371,4.371h-15.573c-1.503,0-2.869-0.819-3.552-1.775
	l-44.534-60.107v57.648c0,2.459-1.913,4.371-4.372,4.371h-15.573c-2.459,0-4.371-1.912-4.371-4.371v-97.128
	c0-2.459,1.912-4.371,4.371-4.371h15.437c1.366,0,2.869,0.683,3.552,1.912l44.534,60.107v-57.648c0-2.459,1.912-4.371,4.371-4.371
	H367.2C369.659,320.866,371.708,322.915,371.708,325.237L371.708,325.237z M259.69,320.866h-15.573
	c-2.459,0-4.372,1.912-4.372,4.371v97.128c0,2.459,1.913,4.371,4.372,4.371h15.573c2.458,0,4.371-1.912,4.371-4.371v-97.128
	C264.062,322.915,262.149,320.866,259.69,320.866z M222.123,402.284h-42.485v-77.047c0-2.458-1.912-4.371-4.371-4.371h-15.573
	c-2.459,0-4.372,1.913-4.372,4.371v97.128c0,1.229,0.41,2.186,1.229,3.005c0.82,0.684,1.776,1.229,3.005,1.229h62.43
	c2.458,0,4.371-1.912,4.371-4.371v-15.573C226.358,404.333,224.445,402.284,222.123,402.284L222.123,402.284z M453.672,320.866
	h-62.429c-2.322,0-4.372,1.912-4.372,4.371v97.128c0,2.322,1.913,4.371,4.372,4.371h62.429c2.459,0,4.372-1.912,4.372-4.371v-15.573
	c0-2.459-1.913-4.371-4.372-4.371h-42.484v-16.393h42.484c2.459,0,4.372-1.913,4.372-4.372v-15.71c0-2.459-1.913-4.371-4.372-4.371
	h-42.484v-16.393h42.484c2.459,0,4.372-1.913,4.372-4.372v-15.573C457.907,322.915,455.995,320.866,453.672,320.866L453.672,320.866
	z M612,201.608v389.741C611.863,652.548,561.729,702.137,500.392,702h-389.74C49.452,701.863-0.137,651.592,0,590.392v-389.74
	C0.137,139.452,50.408,89.863,111.608,90h389.741C562.548,90.137,612.137,140.271,612,201.608z M527.85,369.088
	c0-99.723-99.996-180.868-222.806-180.868c-122.81,0-222.807,81.145-222.807,180.868c0,89.341,79.232,164.202,186.333,178.409
	c26.092,5.602,23.086,15.164,17.212,50.271c-0.957,5.601-4.508,21.994,19.262,12.021c23.77-9.973,128.273-75.544,175.13-129.367
	C512.413,444.905,527.85,408.978,527.85,369.088z"/>
</svg>
